<svg width="30" height="30" viewBox="0 0 30 30" fill="none" xmlns="http://www.w3.org/2000/svg">
<path d="M15 2.1875C16.01 2.1875 18.1369 4.78875 19.0694 5.175C20.0025 5.56125 23.3456 5.22625 24.06 5.94C24.7737 6.65437 24.4388 9.9975 24.825 10.9306C25.2113 11.8638 27.8125 13.9906 27.8125 15C27.8125 16.0094 25.2113 18.1369 24.825 19.0694C24.4388 20.0025 24.7737 23.3456 24.06 24.06C23.3456 24.7737 20.0025 24.4388 19.0694 24.825C18.1362 25.2113 16.0094 27.8125 15 27.8125C13.9906 27.8125 11.8631 25.2113 10.9306 24.825C9.9975 24.4388 6.65437 24.7737 5.94 24.06C5.22625 23.3456 5.56125 20.0025 5.175 19.0694C4.78875 18.1362 2.1875 16.0094 2.1875 15C2.1875 13.9906 4.78875 11.8631 5.175 10.9306C5.56125 9.9975 5.22625 6.65437 5.94 5.94C6.65437 5.22625 9.9975 5.56125 10.9306 5.175C11.8638 4.78875 13.99 2.1875 15 2.1875Z" stroke="black" stroke-width="2" stroke-linecap="round" stroke-linejoin="round"/>
<path d="M15 13.0763C15.9876 13.0763 16.7882 12.2757 16.7882 11.2881C16.7882 10.3006 15.9876 9.5 15 9.5C14.0125 9.5 13.2119 10.3006 13.2119 11.2881C13.2119 12.2757 14.0125 13.0763 15 13.0763Z" stroke="black" stroke-linecap="round" stroke-linejoin="round"/>
<path d="M14.9997 15.5963C14.4465 15.5963 13.9161 15.8161 13.5249 16.2072C13.1338 16.5983 12.9141 17.1288 12.9141 17.682V20.7857H17.0853V17.6813C17.0853 17.1282 16.8656 16.5977 16.4744 16.2066C16.0833 15.8154 15.5528 15.5957 14.9997 15.5957" stroke="black" stroke-linecap="round" stroke-linejoin="round"/>
</svg>
