<svg width="27" height="27" viewBox="0 0 27 27" fill="none" xmlns="http://www.w3.org/2000/svg">
<path d="M13.5001 13.5V21M13.5001 13.5C18.3326 13.5 22.2501 9.60375 22.2501 4.7975C22.2501 4.6725 22.2476 4.5475 22.2426 4.4225C22.1888 3.1725 22.1626 2.5475 21.3151 1.77375C20.4676 1 19.5313 1 17.6551 1H9.34507C7.47007 1 6.53132 1 5.68507 1.775C4.83882 2.5475 4.81132 3.1725 4.75757 4.42125C4.75257 4.54625 4.75007 4.67167 4.75007 4.7975C4.75007 9.60375 8.66757 13.5 13.5001 13.5ZM13.5001 21C11.4076 21 9.58757 22.265 8.64757 24.1312C8.19757 25.0225 8.84257 26 9.69757 26H17.3013C18.1576 26 18.8013 25.0225 18.3526 24.1312C17.4126 22.265 15.5926 21 13.5001 21ZM4.75007 4.75H3.48132C2.24757 4.75 1.63132 4.75 1.25007 5.2125C0.868823 5.67625 0.981323 6.195 1.20507 7.2325C1.63007 9.2125 2.55632 10.9538 3.81132 12.25M22.2501 4.75H23.5188C24.7526 4.75 25.3688 4.75 25.7501 5.2125C26.1313 5.67625 26.0188 6.195 25.7963 7.2325C25.3688 9.2125 24.4438 10.9538 23.1876 12.25" stroke="black" stroke-width="2" stroke-linecap="round" stroke-linejoin="round"/>
</svg>
