<svg width="48" height="50" viewBox="0 0 48 50" fill="none" xmlns="http://www.w3.org/2000/svg">
<rect width="47.3743" height="50" rx="5" fill="#FAE0E1"/>
<path fill-rule="evenodd" clip-rule="evenodd" d="M19.665 16.5C17.135 16.5 15.5 18.233 15.5 20.916V29.084C15.5 31.767 17.135 33.5 19.665 33.5H28.333C30.864 33.5 32.5 31.767 32.5 29.084V20.916C32.5 18.233 30.864 16.5 28.334 16.5H19.665ZM28.333 35H19.665C16.276 35 14 32.622 14 29.084V20.916C14 17.378 16.276 15 19.665 15H28.334C31.723 15 34 17.378 34 20.916V29.084C34 32.622 31.723 35 28.333 35Z" fill="#201C44"/>
<path fill-rule="evenodd" clip-rule="evenodd" d="M22.8135 28.1229C22.6225 28.1229 22.4295 28.0499 22.2835 27.9029L19.9095 25.5299C19.6165 25.2369 19.6165 24.7629 19.9095 24.4699C20.2025 24.1769 20.6765 24.1769 20.9695 24.4699L22.8135 26.3119L27.0295 22.0969C27.3225 21.8039 27.7965 21.8039 28.0895 22.0969C28.3825 22.3899 28.3825 22.8639 28.0895 23.1569L23.3435 27.9029C23.1975 28.0499 23.0055 28.1229 22.8135 28.1229Z" fill="#201C44"/>
</svg>
