<svg width="48" height="50" viewBox="0 0 48 50" fill="none" xmlns="http://www.w3.org/2000/svg">
<rect width="48" height="50" rx="5" fill="#FAE0E1"/>
<path fill-rule="evenodd" clip-rule="evenodd" d="M23.7499 17.5C23.6589 17.5 23.4349 17.525 23.3159 17.763L21.4899 21.414C21.2009 21.991 20.6439 22.392 19.9999 22.484L15.9119 23.073C15.6419 23.112 15.5499 23.312 15.5219 23.396C15.4969 23.477 15.4569 23.683 15.6429 23.861L18.5989 26.701C19.0699 27.154 19.2839 27.807 19.1719 28.446L18.4759 32.456C18.4329 32.707 18.5899 32.853 18.6599 32.903C18.7339 32.959 18.9319 33.07 19.1769 32.942L22.8319 31.047C23.4079 30.75 24.0939 30.75 24.6679 31.047L28.3219 32.941C28.5679 33.068 28.7659 32.957 28.8409 32.903C28.9109 32.853 29.0679 32.707 29.0249 32.456L28.3269 28.446C28.2149 27.807 28.4289 27.154 28.8999 26.701L31.8559 23.861C32.0429 23.683 32.0029 23.476 31.9769 23.396C31.9499 23.312 31.8579 23.112 31.5879 23.073L27.4999 22.484C26.8569 22.392 26.2999 21.991 26.0109 21.413L24.1829 17.763C24.0649 17.525 23.8409 17.5 23.7499 17.5ZM18.9469 34.5C18.5339 34.5 18.1239 34.37 17.7729 34.114C17.1669 33.67 16.8699 32.937 16.9989 32.199L17.6949 28.189C17.7209 28.04 17.6699 27.889 17.5599 27.783L14.6039 24.943C14.0599 24.422 13.8649 23.652 14.0949 22.937C14.3269 22.214 14.9409 21.697 15.6979 21.589L19.7859 21C19.9439 20.978 20.0799 20.881 20.1479 20.743L21.9749 17.091C22.3119 16.418 22.9919 16 23.7499 16C24.5079 16 25.1879 16.418 25.5249 17.091L27.3529 20.742C27.4219 20.881 27.5569 20.978 27.7139 21L31.8019 21.589C32.5589 21.697 33.1729 22.214 33.4049 22.937C33.6349 23.652 33.4389 24.422 32.8949 24.943L29.9389 27.783C29.8289 27.889 29.7789 28.04 29.8049 28.188L30.5019 32.199C30.6299 32.938 30.3329 33.671 29.7259 34.114C29.1109 34.565 28.3099 34.626 27.6309 34.272L23.9779 32.379C23.8349 32.305 23.6639 32.305 23.5209 32.379L19.8679 34.273C19.5759 34.425 19.2609 34.5 18.9469 34.5Z" fill="#131126"/>
</svg>
