<svg width="30" height="30" viewBox="0 0 30 30" fill="none" xmlns="http://www.w3.org/2000/svg">
<path d="M5.35645 3.4375H24.6439V26.5625H5.35645V3.4375Z" stroke="black" stroke-linecap="round" stroke-linejoin="round"/>
<path d="M10.1783 14.9999H5.35645L5.35707 19.8174H10.1783M10.1783 14.9999V19.8174M10.1783 14.9999H15.0002M10.1783 14.9999V10.1824M10.1783 14.9999H5.35707L5.35645 10.1824H10.1783M10.1783 19.8174H15.0002M15.0002 14.9999V19.8174M15.0002 14.9999H19.8221M15.0002 14.9999V10.1824M15.0002 19.8174H19.8221M19.8221 14.9999V19.8174M19.8221 14.9999H24.6433M19.8221 14.9999V10.1824M19.8221 19.8174H24.6433V14.9999M24.6433 14.9999V10.1824M10.1783 10.1824H15.0002M10.1783 10.1824V5.36426M10.1783 10.1824H5.35707L5.35645 5.36426H10.1783M15.0002 10.1824H19.8221M15.0002 10.1824V5.36426M19.8221 10.1824H24.6433M19.8221 10.1824V5.36426M24.6433 10.1824V5.36426H19.8221M10.1783 5.36426H15.0002M15.0002 5.36426H19.8221M7.28582 21.7449H11.1427V26.5624H7.28582V21.7449ZM18.8577 21.7449H22.7146V26.5624H18.8577V21.7449ZM13.0714 21.7449H16.9289V26.5624H13.0714V21.7449Z" stroke="black" stroke-linecap="round" stroke-linejoin="round"/>
</svg>
