<svg width="30" height="30" viewBox="0 0 30 30" fill="none" xmlns="http://www.w3.org/2000/svg">
<path d="M15.3504 13.5918C14.4131 13.5819 13.4997 13.295 12.7252 12.7671C11.9507 12.2392 11.3496 11.4939 10.9978 10.6251C10.6459 9.75638 10.559 8.80292 10.7478 7.88483C10.9367 6.96674 11.393 6.12505 12.0593 5.46575C12.7255 4.80644 13.5719 4.35899 14.4919 4.17972C15.412 4.00046 16.3645 4.0974 17.2295 4.45834C18.0945 4.81928 18.8335 5.42808 19.3532 6.20809C19.873 6.98811 20.1503 7.90446 20.1504 8.84178C20.1416 10.1075 19.6314 11.3181 18.7317 12.2085C17.832 13.0988 16.6161 13.5962 15.3504 13.5918ZM15.3504 5.75845C14.7428 5.7683 14.1517 5.95748 13.6512 6.30221C13.1508 6.64695 12.7634 7.13187 12.5377 7.69607C12.3119 8.26028 12.258 8.8786 12.3825 9.47337C12.5071 10.0682 12.8046 10.6129 13.2378 11.0391C13.6709 11.4653 14.2203 11.754 14.817 11.869C15.4137 11.984 16.0311 11.9201 16.5916 11.6853C17.1521 11.4505 17.6307 11.0554 17.9674 10.5495C18.304 10.0436 18.4836 9.44946 18.4837 8.84178C18.4749 8.01808 18.1404 7.23137 17.5533 6.6536C16.9661 6.07583 16.1741 5.75399 15.3504 5.75845Z" fill="black"/>
<path d="M15.35 13.5918C14.4127 13.5819 13.4993 13.295 12.7248 12.7671C11.9503 12.2392 11.3492 11.4939 10.9974 10.6251C10.6455 9.75638 10.5586 8.80292 10.7474 7.88483C10.9363 6.96674 11.3926 6.12505 12.0589 5.46575C12.7251 4.80644 13.5715 4.35899 14.4916 4.17972C15.4116 4.00046 16.3641 4.0974 17.2291 4.45834C18.0941 4.81928 18.8331 5.42808 19.3528 6.20809C19.8726 6.98811 20.1499 7.90446 20.15 8.84178C20.1412 10.1075 19.6311 11.3181 18.7314 12.2085C17.8317 13.0988 16.6157 13.5962 15.35 13.5918ZM15.35 5.75845C14.7424 5.7683 14.1513 5.95748 13.6508 6.30221C13.1504 6.64695 12.763 7.13187 12.5373 7.69607C12.3115 8.26028 12.2576 8.8786 12.3821 9.47337C12.5067 10.0682 12.8042 10.6129 13.2374 11.0391C13.6705 11.4653 14.2199 11.754 14.8166 11.869C15.4133 11.984 16.0307 11.9201 16.5912 11.6853C17.1517 11.4505 17.6303 11.0554 17.967 10.5495C18.3036 10.0436 18.4833 9.44946 18.4833 8.84178C18.4745 8.01808 18.14 7.23137 17.5529 6.6536C16.9657 6.07583 16.1737 5.75399 15.35 5.75845ZM18.2583 14.7084C14.5621 14.0653 10.757 14.6507 7.425 16.3751C7.18848 16.5064 6.99263 16.7003 6.85888 16.9355C6.72513 17.1706 6.65864 17.438 6.66667 17.7084V20.6751C6.66667 20.8961 6.75446 21.1081 6.91074 21.2644C7.06702 21.4207 7.27899 21.5084 7.5 21.5084C7.72101 21.5084 7.93297 21.4207 8.08925 21.2644C8.24553 21.1081 8.33333 20.8961 8.33333 20.6751V17.8168C11.4231 16.2665 14.9367 15.7746 18.3333 16.4168L18.2583 14.7084Z" fill="black"/>
<path d="M27.4997 18.3333H21.9163V17.0999C21.9163 16.8789 21.8285 16.667 21.6723 16.5107C21.516 16.3544 21.304 16.2666 21.083 16.2666C20.862 16.2666 20.65 16.3544 20.4938 16.5107C20.3375 16.667 20.2497 16.8789 20.2497 17.0999V18.3333H14.1663C13.9453 18.3333 13.7334 18.4211 13.5771 18.5773C13.4208 18.7336 13.333 18.9456 13.333 19.1666V27.4999C13.333 27.7209 13.4208 27.9329 13.5771 28.0892C13.7334 28.2455 13.9453 28.3333 14.1663 28.3333H27.4997C27.7207 28.3333 27.9327 28.2455 28.0889 28.0892C28.2452 27.9329 28.333 27.7209 28.333 27.4999V19.1666C28.333 18.9456 28.2452 18.7336 28.0889 18.5773C27.9327 18.4211 27.7207 18.3333 27.4997 18.3333ZM26.6663 26.6666H14.9997V19.9999H20.2497V20.3416C20.2497 20.5626 20.3375 20.7746 20.4938 20.9309C20.65 21.0871 20.862 21.1749 21.083 21.1749C21.304 21.1749 21.516 21.0871 21.6723 20.9309C21.8285 20.7746 21.9163 20.5626 21.9163 20.3416V19.9999H26.6663V26.6666Z" fill="black"/>
<path d="M18.1753 22.8499H23.142V24.0166H18.1753V22.8499ZM9.03366 10.1999C6.72653 10.2385 4.45941 10.8089 2.40866 11.8666C2.18563 11.9844 1.99881 12.1606 1.86817 12.3764C1.73754 12.5922 1.668 12.8394 1.66699 13.0916V15.6749C1.66699 15.8959 1.75479 16.1079 1.91107 16.2642C2.06735 16.4205 2.27931 16.5083 2.50033 16.5083C2.72134 16.5083 2.9333 16.4205 3.08958 16.2642C3.24586 16.1079 3.33366 15.8959 3.33366 15.6749V13.2583C5.29307 12.283 7.46246 11.805 9.65033 11.8666C9.36429 11.3442 9.15652 10.7827 9.03366 10.1999ZM27.592 11.8583C25.7527 10.8934 23.7313 10.3256 21.6587 10.1916C21.5362 10.7733 21.3313 11.3345 21.0503 11.8583C23.0028 11.9053 24.9208 12.3833 26.667 13.2583V15.6749C26.667 15.8959 26.7548 16.1079 26.9111 16.2642C27.0673 16.4205 27.2793 16.5083 27.5003 16.5083C27.7213 16.5083 27.9333 16.4205 28.0896 16.2642C28.2459 16.1079 28.3337 15.8959 28.3337 15.6749V13.0916C28.3342 12.838 28.2653 12.589 28.1346 12.3716C28.0039 12.1543 27.8163 11.9767 27.592 11.8583ZM8.88366 8.8416V8.28327C8.23084 8.1959 7.63687 7.86013 7.22538 7.34585C6.8139 6.83156 6.61662 6.1784 6.6746 5.52231C6.73259 4.86623 7.04137 4.25779 7.53668 3.82365C8.03198 3.38951 8.67564 3.16311 9.33366 3.1916C10.0181 3.19036 10.6759 3.45649 11.167 3.93327C11.6004 3.5762 12.0762 3.27392 12.5837 3.03327C12.0167 2.38132 11.2654 1.91647 10.429 1.69999C9.59252 1.48352 8.7101 1.52558 7.89803 1.82064C7.08595 2.11569 6.38234 2.64989 5.87993 3.35281C5.37753 4.05574 5.0999 4.89441 5.08366 5.75827C5.10115 6.81557 5.51216 7.82837 6.23641 8.59885C6.96066 9.36933 7.94613 9.84214 9.00033 9.92494C8.92955 9.56797 8.89051 9.20545 8.88366 8.8416ZM20.642 1.52494C20.0693 1.52506 19.5024 1.63936 18.9744 1.86114C18.4464 2.08292 17.968 2.40774 17.567 2.8166C18.1298 3.02197 18.6624 3.30227 19.1503 3.64994C19.5394 3.37988 19.9944 3.22046 20.4669 3.18869C20.9394 3.15692 21.4117 3.25399 21.8334 3.46954C22.2551 3.68509 22.6104 4.01104 22.8614 4.41264C23.1124 4.81424 23.2497 5.27643 23.2587 5.74994C23.2534 6.2363 23.1105 6.71123 22.8465 7.11975C22.5826 7.52827 22.2083 7.85367 21.767 8.05827C21.8009 8.31521 21.8176 8.57411 21.817 8.83327C21.8144 9.16822 21.7865 9.5025 21.7337 9.83327C22.6415 9.59988 23.4467 9.07292 24.0239 8.3344C24.6012 7.59589 24.9181 6.68725 24.9253 5.74994C24.9143 4.62269 24.4577 3.5456 23.6551 2.75397C22.8525 1.96233 21.7693 1.52048 20.642 1.52494Z" fill="black"/>
</svg>
