<svg width="46" height="61" viewBox="0 0 46 61" fill="none" xmlns="http://www.w3.org/2000/svg">
<path d="M2.4668 59.0024V30.9815C2.66509 28.646 3.89168 21.4544 9.59124 16.9711L4.84161 11.3669C2.4668 7.93151 4.24791 0.158508 10.7786 2.9606C13.1535 4.36165 14.3409 6.46321 16.122 8.56478L23.8401 18.3721C24.6321 19.7731 26.8086 22.3076 26.2149 28.8127" stroke="#3C3679" stroke-width="3.56258" stroke-linecap="round" stroke-linejoin="round"/>
<path d="M14.3408 32.3818C20.2779 32.3818 32.1519 36.585 35.7141 47.7933C36.5061 50.9625 37.4953 56.1996 38.089 59.0017" stroke="#3C3679" stroke-width="3.56258" stroke-linecap="round" stroke-linejoin="round"/>
<path d="M16.7158 59.0015C16.7158 53.5514 20.0406 42.1301 33.3395 44.2233" stroke="#3C3679" stroke-width="3.56258" stroke-linecap="round" stroke-linejoin="round"/>
<path d="M45.3619 55.433C45.3619 56.8065 44.4318 57.7897 43.4324 57.7897C42.433 57.7897 41.5029 56.8065 41.5029 55.433C41.5029 54.0594 42.433 53.0762 43.4324 53.0762C44.4318 53.0762 45.3619 54.0594 45.3619 55.433Z" fill="white" stroke="#3C3679" stroke-width="0.890645"/>
</svg>
