<svg width="30" height="30" viewBox="0 0 30 30" fill="none" xmlns="http://www.w3.org/2000/svg">
<path d="M15.035 21.5375C15.3117 21.5375 15.545 21.4425 15.735 21.2525C15.925 21.0625 16.02 20.8292 16.02 20.5525C16.02 20.2758 15.9242 20.0425 15.7325 19.8525C15.5425 19.6625 15.3092 19.5675 15.0325 19.5675C14.7558 19.5675 14.5225 19.6629 14.3325 19.8538C14.1425 20.0446 14.0479 20.2779 14.0487 20.5538C14.0487 20.8304 14.1438 21.0638 14.3337 21.2537C14.5254 21.4438 14.7592 21.5388 15.035 21.5388M15.0037 26.25C13.4488 26.25 11.9862 25.955 10.6163 25.365C9.24708 24.7742 8.05583 23.9725 7.0425 22.96C6.02917 21.9475 5.22708 20.7575 4.63625 19.39C4.04542 18.0225 3.75 16.5604 3.75 15.0037C3.75 13.4471 4.04542 11.9846 4.63625 10.6163C5.22625 9.24708 6.02667 8.05583 7.0375 7.0425C8.04833 6.02917 9.23875 5.22708 10.6088 4.63625C11.9788 4.04542 13.4412 3.75 14.9963 3.75C16.5512 3.75 18.0138 4.04542 19.3837 4.63625C20.7529 5.22625 21.9442 6.02708 22.9575 7.03875C23.9708 8.05042 24.7729 9.24083 25.3638 10.61C25.9546 11.9792 26.25 13.4412 26.25 14.9963C26.25 16.5512 25.955 18.0138 25.365 19.3837C24.775 20.7537 23.9733 21.945 22.96 22.9575C21.9467 23.97 20.7567 24.7721 19.39 25.3638C18.0233 25.9554 16.5613 26.2508 15.0037 26.25ZM15 25C17.7917 25 20.1562 24.0312 22.0938 22.0938C24.0312 20.1562 25 17.7917 25 15C25 12.2083 24.0312 9.84375 22.0938 7.90625C20.1562 5.96875 17.7917 5 15 5C12.2083 5 9.84375 5.96875 7.90625 7.90625C5.96875 9.84375 5 12.2083 5 15C5 17.7917 5.96875 20.1562 7.90625 22.0938C9.84375 24.0312 12.2083 25 15 25ZM15.0775 9.67375C15.7108 9.67375 16.2558 9.87 16.7125 10.2625C17.1708 10.655 17.4 11.1462 17.4 11.7362C17.4 12.1946 17.2708 12.6088 17.0125 12.9788C16.7558 13.3488 16.4583 13.69 16.12 14.0025C15.6917 14.3908 15.3146 14.8179 14.9888 15.2838C14.6629 15.7504 14.4758 16.2642 14.4275 16.825C14.4117 16.9883 14.4629 17.125 14.5813 17.235C14.6979 17.3442 14.8354 17.3987 14.9937 17.3987C15.1613 17.3987 15.3025 17.3429 15.4175 17.2312C15.5317 17.1187 15.6042 16.9862 15.635 16.8337C15.7183 16.4129 15.8858 16.0383 16.1375 15.71C16.3883 15.3825 16.6642 15.0725 16.965 14.78C17.3975 14.35 17.7812 13.8813 18.1163 13.3738C18.4521 12.8671 18.62 12.3017 18.62 11.6775C18.62 10.76 18.2717 10.0025 17.575 9.405C16.8792 8.80833 16.0625 8.51 15.125 8.51C14.43 8.51 13.7829 8.6725 13.1838 8.9975C12.5854 9.3225 12.1067 9.7725 11.7475 10.3475C11.6658 10.4858 11.6396 10.6288 11.6687 10.7763C11.6979 10.9238 11.7771 11.0358 11.9062 11.1125C12.0712 11.1992 12.2379 11.2192 12.4062 11.1725C12.5746 11.1258 12.7229 11.0292 12.8512 10.8825C13.1287 10.5375 13.4554 10.25 13.8312 10.02C14.2062 9.78833 14.6217 9.67375 15.0775 9.67375Z" fill="black"/>
</svg>
