<svg width="30" height="30" viewBox="0 0 30 30" fill="none" xmlns="http://www.w3.org/2000/svg">
<path fill-rule="evenodd" clip-rule="evenodd" d="M23.0207 10.6739C23.1735 10.5467 23.3705 10.4853 23.5685 10.5033C23.7666 10.5213 23.9493 10.6172 24.0767 10.7699L27.2012 14.5199C27.3229 14.6733 27.3798 14.8682 27.3597 15.063C27.3396 15.2577 27.2442 15.4369 27.0938 15.5623C26.9434 15.6876 26.7499 15.7492 26.5547 15.7338C26.3595 15.7184 26.1781 15.6273 26.0492 15.4799L22.9247 11.7299C22.7974 11.5772 22.7361 11.3801 22.7541 11.1821C22.7721 10.984 22.868 10.8013 23.0207 10.6739Z" fill="black"/>
<path fill-rule="evenodd" clip-rule="evenodd" d="M23.0207 19.3259C22.868 19.1986 22.7721 19.0158 22.7541 18.8178C22.7361 18.6198 22.7974 18.4227 22.9247 18.2699L26.0492 14.5199C26.1113 14.4416 26.1885 14.3765 26.2762 14.3284C26.3639 14.2803 26.4604 14.2503 26.5598 14.24C26.6593 14.2298 26.7598 14.2395 26.8555 14.2687C26.9512 14.2979 27.04 14.3459 27.1168 14.4099C27.1937 14.4739 27.2569 14.5527 27.3029 14.6415C27.3488 14.7303 27.3765 14.8275 27.3844 14.9272C27.3922 15.0268 27.3801 15.1271 27.3486 15.222C27.3172 15.317 27.267 15.4046 27.2012 15.4799L24.0767 19.2299C23.9493 19.3826 23.7666 19.4785 23.5685 19.4965C23.3705 19.5145 23.1735 19.4532 23.0207 19.3259Z" fill="black"/>
<path fill-rule="evenodd" clip-rule="evenodd" d="M26.25 15C26.25 15.1989 26.171 15.3897 26.0303 15.5303C25.8897 15.671 25.6989 15.75 25.5 15.75H14.25C14.0511 15.75 13.8603 15.671 13.7197 15.5303C13.579 15.3897 13.5 15.1989 13.5 15C13.5 14.8011 13.579 14.6103 13.7197 14.4697C13.8603 14.329 14.0511 14.25 14.25 14.25H25.5C25.6989 14.25 25.8897 14.329 26.0303 14.4697C26.171 14.6103 26.25 14.8011 26.25 15ZM5.25 4.5C5.25 4.30109 5.32902 4.11032 5.46967 3.96967C5.61032 3.82902 5.80109 3.75 6 3.75H19.5C19.6989 3.75 19.8897 3.82902 20.0303 3.96967C20.171 4.11032 20.25 4.30109 20.25 4.5C20.25 4.69891 20.171 4.88968 20.0303 5.03033C19.8897 5.17098 19.6989 5.25 19.5 5.25H6C5.80109 5.25 5.61032 5.17098 5.46967 5.03033C5.32902 4.88968 5.25 4.69891 5.25 4.5ZM5.25 25.5C5.25 25.3011 5.32902 25.1103 5.46967 24.9697C5.61032 24.829 5.80109 24.75 6 24.75H19.5C19.6989 24.75 19.8897 24.829 20.0303 24.9697C20.171 25.1103 20.25 25.3011 20.25 25.5C20.25 25.6989 20.171 25.8897 20.0303 26.0303C19.8897 26.171 19.6989 26.25 19.5 26.25H6C5.80109 26.25 5.61032 26.171 5.46967 26.0303C5.32902 25.8897 5.25 25.6989 5.25 25.5Z" fill="black"/>
<path fill-rule="evenodd" clip-rule="evenodd" d="M19.5 3.75C19.6989 3.75 19.8897 3.82902 20.0303 3.96967C20.171 4.11032 20.25 4.30109 20.25 4.5V10.5C20.25 10.6989 20.171 10.8897 20.0303 11.0303C19.8897 11.171 19.6989 11.25 19.5 11.25C19.3011 11.25 19.1103 11.171 18.9697 11.0303C18.829 10.8897 18.75 10.6989 18.75 10.5V4.5C18.75 4.30109 18.829 4.11032 18.9697 3.96967C19.1103 3.82902 19.3011 3.75 19.5 3.75ZM19.5 18.75C19.6989 18.75 19.8897 18.829 20.0303 18.9697C20.171 19.1103 20.25 19.3011 20.25 19.5V25.5C20.25 25.6989 20.171 25.8897 20.0303 26.0303C19.8897 26.171 19.6989 26.25 19.5 26.25C19.3011 26.25 19.1103 26.171 18.9697 26.0303C18.829 25.8897 18.75 25.6989 18.75 25.5V19.5C18.75 19.3011 18.829 19.1103 18.9697 18.9697C19.1103 18.829 19.3011 18.75 19.5 18.75ZM6 3.75C6.19891 3.75 6.38968 3.82902 6.53033 3.96967C6.67098 4.11032 6.75 4.30109 6.75 4.5V25.5C6.75 25.6989 6.67098 25.8897 6.53033 26.0303C6.38968 26.171 6.19891 26.25 6 26.25C5.80109 26.25 5.61032 26.171 5.46967 26.0303C5.32902 25.8897 5.25 25.6989 5.25 25.5V4.5C5.25 4.30109 5.32902 4.11032 5.46967 3.96967C5.61032 3.82902 5.80109 3.75 6 3.75Z" fill="black"/>
</svg>
