<svg width="30" height="30" viewBox="0 0 30 30" fill="none" xmlns="http://www.w3.org/2000/svg">
<path d="M14.0625 20.625L12.7406 21.9469L15.1594 24.375H3.75V7.5H1.875V24.375C1.875 25.4091 2.71594 26.25 3.75 26.25H15.1594L12.7406 28.6781L14.0625 30L18.75 25.3125L14.0625 20.625Z" fill="black"/>
<path d="M10.3125 15.9375C10.8303 15.9375 11.25 15.5178 11.25 15C11.25 14.4822 10.8303 14.0625 10.3125 14.0625C9.79473 14.0625 9.375 14.4822 9.375 15C9.375 15.5178 9.79473 15.9375 10.3125 15.9375Z" fill="black"/>
<path d="M22.5 18.75H7.5C6.46594 18.75 5.625 17.9091 5.625 16.875V13.125C5.625 12.0909 6.46594 11.25 7.5 11.25H22.5C23.5341 11.25 24.375 12.0909 24.375 13.125V16.875C24.375 17.9091 23.5341 18.75 22.5 18.75ZM7.5 13.125V16.875H22.5V13.125H7.5Z" fill="black"/>
<path d="M26.25 3.75H14.8406L17.2594 1.32187L15.9375 0L11.25 4.6875L15.9375 9.375L17.2594 8.05313L14.8406 5.625H26.25V22.5H28.125V5.625C28.125 4.59188 27.2841 3.75 26.25 3.75Z" fill="black"/>
</svg>
