<svg width="23" height="23" viewBox="0 0 23 23" fill="none" xmlns="http://www.w3.org/2000/svg">
<path d="M2.50033 0.5H10.75V2H2.5H2V2.5V20V20.5H2.5H10.75V22H2.5C1.94604 22 1.48461 21.8088 1.08855 21.4127C0.692545 21.0167 0.500737 20.5547 0.5 19.9997V2.5C0.5 1.94631 0.691455 1.48498 1.08825 1.08885C1.48546 0.692317 1.94726 0.500736 2.50033 0.5ZM17.7188 12H8V10.5H17.7188H18.9259L18.0723 9.64645L15.2291 6.80324L16.2595 5.71662L21.7929 11.25L16.2595 16.7834L15.2291 15.6968L18.0723 12.8536L18.9259 12H17.7188Z" fill="#A50C0C" stroke="#A50C0C"/>
</svg>
