<svg width="30" height="30" viewBox="0 0 30 30" fill="none" xmlns="http://www.w3.org/2000/svg">
<path d="M11.5625 22.7575V26.5625H24.0625C25.4475 26.5625 26.5625 25.4475 26.5625 24.0625V5.9375C26.5625 4.5525 25.4475 3.4375 24.0625 3.4375H11.5625V14.1175C12.2932 12.9536 13.3071 11.9941 14.5094 11.3286C15.7118 10.6632 17.0633 10.3136 18.4375 10.3125C22.925 10.3125 26.5625 13.95 26.5625 18.4375C26.5625 22.925 22.8662 26.5613 18.4375 26.5613C15.6894 26.5613 13.0475 25.1237 11.5625 22.7575ZM5.9375 3.4375C4.5525 3.4375 3.4375 4.5525 3.4375 5.9375V24.0625C3.4375 25.4475 4.5525 26.5625 5.9375 26.5625H9.0625V3.4375H5.9375Z" stroke="black" stroke-width="1.5" stroke-linecap="round" stroke-linejoin="round"/>
<path d="M18.4375 24.0625C21.5441 24.0625 24.0625 21.5441 24.0625 18.4375C24.0625 15.3309 21.5441 12.8125 18.4375 12.8125C15.3309 12.8125 12.8125 15.3309 12.8125 18.4375C12.8125 21.5441 15.3309 24.0625 18.4375 24.0625Z" stroke="black" stroke-width="1.5" stroke-linecap="round" stroke-linejoin="round"/>
</svg>
