<svg width="30" height="30" viewBox="0 0 30 30" fill="none" xmlns="http://www.w3.org/2000/svg">
<path d="M15 17.5C16.3807 17.5 17.5 16.3807 17.5 15C17.5 13.6193 16.3807 12.5 15 12.5C13.6193 12.5 12.5 13.6193 12.5 15C12.5 16.3807 13.6193 17.5 15 17.5Z" stroke="black"/>
<path d="M6.74875 7.35005L7.06125 6.80755C6.93856 6.73661 6.7954 6.70948 6.65526 6.7306C6.51513 6.75173 6.38633 6.81985 6.29 6.9238L6.74875 7.35005ZM4.25 11.68L3.6525 11.495C3.61091 11.6303 3.61645 11.7757 3.66823 11.9074C3.72 12.0391 3.81493 12.1493 3.9375 12.22L4.25 11.68ZM4.2475 18.3188L3.935 17.7775C3.81217 17.8483 3.71705 17.9588 3.66527 18.0907C3.61348 18.2227 3.60809 18.3684 3.65 18.5038L4.2475 18.3188ZM6.7475 22.6488L6.28875 23.0738C6.38508 23.1777 6.51388 23.2459 6.65401 23.267C6.79415 23.2881 6.93731 23.261 7.06 23.19L6.7475 22.6488ZM12.4975 25.9675H11.8725C11.8724 26.1095 11.9207 26.2472 12.0093 26.3581C12.0979 26.4689 12.2216 26.5463 12.36 26.5775L12.4975 25.9675ZM17.4987 25.97L17.6375 26.58C17.7757 26.5486 17.8991 26.4711 17.9875 26.3602C18.0758 26.2494 18.1239 26.1118 18.1237 25.97H17.4987ZM23.25 22.65L22.9375 23.1913C23.0602 23.2622 23.2033 23.2894 23.3435 23.2682C23.4836 23.2471 23.6124 23.179 23.7087 23.075L23.25 22.65ZM25.7475 18.3175L26.345 18.5025C26.3866 18.3673 26.381 18.2219 26.3293 18.0902C26.2775 17.9585 26.1826 17.8483 26.06 17.7775L25.7475 18.3175ZM25.75 11.6788L26.0625 12.22C26.1853 12.1493 26.2804 12.0388 26.3322 11.9069C26.384 11.7749 26.3894 11.6292 26.3475 11.4938L25.75 11.6788ZM23.25 7.34755L23.7087 6.92255C23.6124 6.8186 23.4836 6.75048 23.3435 6.72935C23.2033 6.70823 23.0602 6.73536 22.9375 6.8063L23.25 7.34755ZM17.5 4.0313H18.125C18.1248 3.88976 18.0767 3.75247 17.9883 3.64188C17.9 3.5313 17.7767 3.45397 17.6387 3.42255L17.5 4.0313ZM12.5 4.0288L12.3612 3.4188C12.2228 3.45002 12.0991 3.52743 12.0105 3.6383C11.9219 3.74916 11.8737 3.88688 11.8737 4.0288H12.5ZM4.8475 11.865C5.31688 10.3416 6.12304 8.94334 7.20625 7.7738L6.29 6.9238C5.07891 8.23078 4.17748 9.79231 3.6525 11.495L4.8475 11.865ZM5.7975 20.3125C5.39999 19.6246 5.08091 18.8942 4.84625 18.135L3.65125 18.505C3.91419 19.3531 4.27142 20.1691 4.71625 20.9375L5.7975 20.3125ZM7.2075 22.225C6.66791 21.6422 6.19412 21.0007 5.7975 20.3125L4.71625 20.9375C5.1593 21.7066 5.68718 22.4236 6.29 23.075L7.2075 22.225ZM17.3612 25.3625C15.8068 25.716 14.1928 25.7151 12.6387 25.36L12.3612 26.5775C14.0979 26.9746 15.9016 26.9759 17.6387 26.5813L17.3612 25.3625ZM25.1525 18.135C24.6831 19.6585 23.877 21.0568 22.7937 22.2263L23.71 23.0763C24.9211 21.7693 25.8225 20.2065 26.3475 18.5038L25.1525 18.135ZM24.2025 9.68755C24.6075 10.3913 24.9237 11.1213 25.155 11.865L26.3487 11.495C26.0858 10.6469 25.7286 9.83101 25.2837 9.06255L24.2025 9.68755ZM22.7925 7.77505C23.3321 8.35789 23.8059 8.9994 24.2025 9.68755L25.2837 9.06255C24.8407 8.29347 24.3128 7.5765 23.71 6.92505L22.7925 7.77505ZM12.6387 4.63755C14.1932 4.28411 15.8072 4.28496 17.3612 4.64005L17.6387 3.42255C15.9021 3.02546 14.0984 3.02418 12.3612 3.4188L12.6387 4.63755ZM13.125 6.34005V4.02755H11.875V6.34005H13.125ZM9.0625 7.96255L7.06125 6.80755L6.43625 7.8888L8.43625 9.04505L9.0625 7.96255ZM5.9375 16.6225L3.935 17.7775L4.56125 18.86L6.56125 17.705L5.9375 16.6225ZM6.5625 12.2925L4.5625 11.1388L3.9375 12.2213L5.9375 13.375L6.5625 12.2925ZM13.125 25.9675V23.6588H11.875V25.9675H13.125ZM8.4375 20.9525L6.43625 22.1075L7.06125 23.19L9.06125 22.035L8.4375 20.9525ZM23.5637 22.1088L21.5625 20.9525L20.9375 22.0363L22.9375 23.1913L23.5637 22.1088ZM18.125 25.9713V23.6588H16.875V25.9713H18.125ZM25.4387 11.1375L23.4375 12.2925L24.0625 13.375L26.0625 12.22L25.4387 11.1375ZM26.0612 17.7763L24.0625 16.625L23.4375 17.7075L25.4375 18.8613L26.0612 17.7763ZM18.125 6.34005V4.0313H16.875V6.34005H18.125ZM22.9387 6.80755L20.9375 7.9638L21.5625 9.0463L23.5637 7.89005L22.9387 6.80755ZM16.875 6.34005C16.875 8.74505 19.4787 10.2488 21.5625 9.0463L20.9375 7.9638C20.6524 8.12841 20.3289 8.21505 19.9997 8.215C19.6705 8.21495 19.347 8.1282 19.062 7.9635C18.7769 7.79879 18.5402 7.56192 18.3757 7.27672C18.2113 6.99152 18.1248 6.66928 18.125 6.34005H16.875ZM23.4375 12.2938C21.3537 13.4963 21.3537 16.5038 23.4375 17.7063L24.0625 16.6238C23.7775 16.4592 23.5408 16.2225 23.3763 15.9375C23.2117 15.6525 23.1251 15.3292 23.1251 15C23.1251 14.6709 23.2117 14.3476 23.3763 14.0626C23.5408 13.7776 23.7775 13.5409 24.0625 13.3763L23.4375 12.2938ZM21.5625 20.9538C19.4787 19.7513 16.875 21.2525 16.875 23.6588H18.125C18.125 23.3297 18.2116 23.0076 18.3762 22.7226C18.5408 22.4375 18.7775 22.2008 19.0625 22.0363C19.3476 21.8717 19.6709 21.7851 20 21.7851C20.3291 21.7851 20.6525 21.8717 20.9375 22.0363L21.5625 20.9538ZM13.125 23.6588C13.125 21.2538 10.5212 19.7513 8.4375 20.9538L9.0625 22.0363C9.34762 21.8717 9.67106 21.785 10.0003 21.7851C10.3295 21.7851 10.6529 21.8719 10.938 22.0366C11.2231 22.2013 11.4598 22.4382 11.6242 22.7234C11.7887 23.0086 11.8752 23.3321 11.875 23.6613L13.125 23.6588ZM6.5625 17.7063C8.64625 16.5038 8.64625 13.4963 6.5625 12.2938L5.9375 13.3763C7.1875 14.0975 7.1875 15.9 5.9375 16.6225L6.5625 17.7063ZM11.875 6.34005C11.8748 6.66907 11.788 6.99224 11.6233 7.27709C11.4586 7.56195 11.2219 7.79846 10.9369 7.96287C10.6519 8.12728 10.3287 8.21381 9.99967 8.21375C9.67065 8.21369 9.34744 8.12706 9.0625 7.96255L8.4375 9.0463C10.5212 10.2488 13.125 8.7463 13.125 6.34005H11.875Z" fill="black"/>
</svg>
