<svg width="48" height="51" viewBox="0 0 48 51" fill="none" xmlns="http://www.w3.org/2000/svg">
<rect x="0.374268" y="0.5" width="47.3743" height="50" rx="5" fill="#CBCFFA"/>
<mask id="mask0_1_200" style="mask-type:luminance" maskUnits="userSpaceOnUse" x="14" y="22" width="21" height="15">
<path fill-rule="evenodd" clip-rule="evenodd" d="M14.3747 22.2942H34.3743V36.0382H14.3747V22.2942Z" fill="white"/>
</mask>
<g mask="url(#mask0_1_200)">
<path fill-rule="evenodd" clip-rule="evenodd" d="M29.9397 36.0382H18.8097C16.3647 36.0382 14.3747 34.0492 14.3747 31.6032V26.7282C14.3747 24.2832 16.3647 22.2942 18.8097 22.2942H19.7427C20.1567 22.2942 20.4927 22.6302 20.4927 23.0442C20.4927 23.4582 20.1567 23.7942 19.7427 23.7942H18.8097C17.1907 23.7942 15.8747 25.1102 15.8747 26.7282V31.6032C15.8747 33.2222 17.1907 34.5382 18.8097 34.5382H29.9397C31.5577 34.5382 32.8747 33.2222 32.8747 31.6032V26.7192C32.8747 25.1062 31.5627 23.7942 29.9507 23.7942H29.0077C28.5937 23.7942 28.2577 23.4582 28.2577 23.0442C28.2577 22.6302 28.5937 22.2942 29.0077 22.2942H29.9507C32.3897 22.2942 34.3747 24.2792 34.3747 26.7192V31.6032C34.3747 34.0492 32.3847 36.0382 29.9397 36.0382Z" fill="black"/>
</g>
<mask id="mask1_1_200" style="mask-type:luminance" maskUnits="userSpaceOnUse" x="23" y="15" width="3" height="15">
<path fill-rule="evenodd" clip-rule="evenodd" d="M23.6243 15.5002H25.1243V29.0411H23.6243V15.5002Z" fill="white"/>
</mask>
<g mask="url(#mask1_1_200)">
<path fill-rule="evenodd" clip-rule="evenodd" d="M24.3743 29.0411C23.9603 29.0411 23.6243 28.7051 23.6243 28.2911V16.2501C23.6243 15.8361 23.9603 15.5001 24.3743 15.5001C24.7883 15.5001 25.1243 15.8361 25.1243 16.2501V28.2911C25.1243 28.7051 24.7883 29.0411 24.3743 29.0411Z" fill="black"/>
</g>
<path fill-rule="evenodd" clip-rule="evenodd" d="M21.4593 19.9289C21.2683 19.9289 21.0763 19.8559 20.9303 19.7099C20.6373 19.4179 20.6353 18.9439 20.9283 18.6499L23.8433 15.7219C24.1243 15.4389 24.6243 15.4389 24.9053 15.7219L27.8213 18.6499C28.1133 18.9439 28.1123 19.4179 27.8193 19.7099C27.5253 20.0019 27.0513 20.0019 26.7593 19.7079L24.3743 17.3139L21.9903 19.7079C21.8443 19.8559 21.6513 19.9289 21.4593 19.9289Z" fill="black"/>
</svg>
