<svg width="48" height="51" viewBox="0 0 48 51" fill="none" xmlns="http://www.w3.org/2000/svg">
<rect y="0.5" width="47.3743" height="50" rx="5" fill="#FAE0E1"/>
<path fill-rule="evenodd" clip-rule="evenodd" d="M19.665 17.0001C17.135 17.0001 15.5 18.7331 15.5 21.4161V29.5841C15.5 32.2671 17.135 34.0001 19.665 34.0001H28.333C30.864 34.0001 32.5 32.2671 32.5 29.5841V21.4161C32.5 18.7331 30.864 17.0001 28.334 17.0001H19.665ZM28.333 35.5001H19.665C16.276 35.5001 14 33.1221 14 29.5841V21.4161C14 17.8781 16.276 15.5001 19.665 15.5001H28.334C31.723 15.5001 34 17.8781 34 21.4161V29.5841C34 33.1221 31.723 35.5001 28.333 35.5001Z" fill="#131126"/>
<path fill-rule="evenodd" clip-rule="evenodd" d="M22.8135 28.6231C22.6225 28.6231 22.4295 28.5501 22.2835 28.4031L19.9095 26.0301C19.6165 25.7371 19.6165 25.2631 19.9095 24.9701C20.2025 24.6771 20.6765 24.6771 20.9695 24.9701L22.8135 26.8121L27.0295 22.5971C27.3225 22.3041 27.7965 22.3041 28.0895 22.5971C28.3825 22.8901 28.3825 23.3641 28.0895 23.6571L23.3435 28.4031C23.1975 28.5501 23.0055 28.6231 22.8135 28.6231Z" fill="#131126"/>
</svg>
