<svg width="123" height="34" viewBox="0 0 123 34" fill="none" xmlns="http://www.w3.org/2000/svg">
<path d="M88.9063 10.6494V8.05511H88.1022V7.48096H90.3566V8.05511H89.5652V10.6494H88.9063ZM90.6828 10.6494V7.48096H91.3209L92.5074 9.05456H92.2097L93.3623 7.48096H94V10.6494H93.3411V8.20822L93.6045 8.26776L92.3841 9.84137H92.299L91.121 8.26776L91.3421 8.20822V10.6494H90.6828Z" fill="#131126"/>
<path d="M1.6853 32.6638V13.4635H4.85954V16.2507L4.54985 15.5539C5.03158 14.7969 5.68535 14.2119 6.51117 13.799C7.33699 13.3689 8.29184 13.1539 9.37573 13.1539C10.7005 13.1539 11.8962 13.4807 12.9629 14.1345C14.0296 14.7883 14.8726 15.6657 15.4919 16.7668C16.1285 17.8679 16.4468 19.1066 16.4468 20.483C16.4468 21.8421 16.1371 23.0809 15.5177 24.1992C14.8984 25.3175 14.0554 26.2035 12.9887 26.8573C11.922 27.4938 10.7091 27.8121 9.34992 27.8121C8.33485 27.8121 7.3972 27.6143 6.53698 27.2186C5.69395 26.8057 5.02298 26.2207 4.52405 25.4637L5.06599 24.7927V32.6638H1.6853ZM8.96282 24.7153C9.73702 24.7153 10.4252 24.5347 11.0274 24.1734C11.6295 23.8121 12.094 23.3131 12.4209 22.6766C12.765 22.04 12.9371 21.3088 12.9371 20.483C12.9371 19.6572 12.765 18.9346 12.4209 18.3152C12.094 17.6787 11.6295 17.1797 11.0274 16.8184C10.4252 16.4399 9.73702 16.2507 8.96282 16.2507C8.22302 16.2507 7.55204 16.4313 6.94989 16.7926C6.36493 17.1539 5.90041 17.6614 5.55632 18.3152C5.22943 18.9518 5.06599 19.6744 5.06599 20.483C5.06599 21.3088 5.22943 22.04 5.55632 22.6766C5.90041 23.3131 6.36493 23.8121 6.94989 24.1734C7.55204 24.5347 8.22302 24.7153 8.96282 24.7153ZM19.0242 27.5024V13.4635H22.1985V16.5862L21.9404 16.1216C22.2673 15.0722 22.7748 14.341 23.463 13.9281C24.1684 13.5152 25.0114 13.3087 25.9921 13.3087H26.8179V16.3023H25.605C24.6415 16.3023 23.8673 16.6034 23.2824 17.2055C22.6974 17.7905 22.4049 18.6163 22.4049 19.683V27.5024H19.0242ZM35.5412 27.8121C34.1648 27.8121 32.9089 27.4938 31.7734 26.8573C30.6551 26.2207 29.7605 25.3519 29.0895 24.2508C28.4357 23.1497 28.1088 21.8938 28.1088 20.483C28.1088 19.0722 28.4357 17.8163 29.0895 16.7152C29.7605 15.6141 30.6551 14.7453 31.7734 14.1087C32.8917 13.4721 34.1476 13.1539 35.5412 13.1539C36.9176 13.1539 38.1649 13.4721 39.2832 14.1087C40.4015 14.7453 41.2875 15.6141 41.9413 16.7152C42.6123 17.7991 42.9478 19.055 42.9478 20.483C42.9478 21.8938 42.6123 23.1497 41.9413 24.2508C41.2703 25.3519 40.3757 26.2207 39.2574 26.8573C38.1391 27.4938 36.9004 27.8121 35.5412 27.8121ZM35.5412 24.7153C36.2982 24.7153 36.9606 24.5347 37.5283 24.1734C38.1133 23.8121 38.5692 23.3131 38.8961 22.6766C39.2402 22.0228 39.4122 21.2916 39.4122 20.483C39.4122 19.6572 39.2402 18.9346 38.8961 18.3152C38.5692 17.6787 38.1133 17.1797 37.5283 16.8184C36.9606 16.4399 36.2982 16.2507 35.5412 16.2507C34.767 16.2507 34.0874 16.4399 33.5025 16.8184C32.9175 17.1797 32.453 17.6787 32.1089 18.3152C31.782 18.9346 31.6186 19.6572 31.6186 20.483C31.6186 21.2916 31.782 22.0228 32.1089 22.6766C32.453 23.3131 32.9175 23.8121 33.5025 24.1734C34.0874 24.5347 34.767 24.7153 35.5412 24.7153ZM46.8349 27.5024V16.4829H44.3574V13.4635H46.8349V12.999C46.8349 11.9323 47.05 11.0291 47.4801 10.2893C47.9274 9.53231 48.5468 8.95595 49.3382 8.56025C50.1296 8.16455 51.0672 7.96669 52.1511 7.96669C52.3576 7.96669 52.5812 7.9839 52.8221 8.01831C53.0801 8.03551 53.2952 8.06132 53.4672 8.09573V11.0119C53.2952 10.9775 53.1318 10.9603 52.9769 10.9603C52.8393 10.9431 52.7102 10.9345 52.5898 10.9345C51.8328 10.9345 51.2479 11.1065 50.835 11.4506C50.422 11.7775 50.2156 12.2936 50.2156 12.999V13.4635H56.3576V16.4829H50.2156V27.5024H46.8349ZM57.0544 27.5024V16.4829H54.5769V13.4635H57.0544V12.999C57.0544 11.9323 57.2695 11.0291 57.6996 10.2893C58.1297 9.53231 58.7404 8.95595 59.5318 8.56025C60.3405 8.16455 61.2867 7.96669 62.3706 7.96669C62.577 7.96669 62.8007 7.9839 63.0416 8.01831C63.2996 8.03551 63.5061 8.06132 63.6609 8.09573V11.0119C63.5061 10.9775 63.3513 10.9603 63.1964 10.9603C63.0588 10.9431 62.9297 10.9345 62.8093 10.9345C62.0523 10.9345 61.4674 11.1065 61.0544 11.4506C60.6415 11.7775 60.4351 12.2936 60.4351 12.999V13.4635H63.5319V16.4829H60.4351V27.5024H57.0544ZM67.6031 33.1799C67.2246 33.1799 66.8547 33.1455 66.4934 33.0767C66.1321 33.0251 65.8053 32.9219 65.5128 32.767V29.9541C65.7364 30.0057 66.0031 30.0573 66.3128 30.1089C66.6397 30.1605 66.9407 30.1863 67.216 30.1863C67.9902 30.1863 68.5494 30.0057 68.8935 29.6444C69.2548 29.3003 69.573 28.8358 69.8483 28.2508L70.7774 26.0831L70.7257 28.9218L64.6095 13.4635H68.2483L72.5322 24.8701H71.2419L75.5 13.4635H79.1646L73.0484 28.9218C72.6871 29.8165 72.2483 30.5821 71.7322 31.2186C71.2161 31.8552 70.6139 32.3369 69.9257 32.6638C69.2548 33.0079 68.4806 33.1799 67.6031 33.1799ZM81.021 27.5024V7.96669H84.4017V27.5024H81.021Z" fill="#131126"/>
<path d="M101.111 26.9789V15.1289C101.21 14.1412 101.822 11.0999 104.666 9.20386L102.296 6.83385C101.111 5.38103 102 2.09383 105.259 3.27883C106.444 3.87134 107.036 4.76009 107.925 5.64884L111.776 9.79636C112.171 10.3889 113.257 11.4607 112.961 14.2117" stroke="#FF4A00" stroke-width="2.37001" stroke-linecap="round" stroke-linejoin="round"/>
<path d="M107.036 15.7212C109.999 15.7212 115.924 17.4987 117.701 22.2387C118.096 23.579 118.59 25.7937 118.886 26.9787" stroke="#FF4A00" stroke-width="2.37001" stroke-linecap="round" stroke-linejoin="round"/>
<path d="M108.221 26.9788C108.221 24.674 109.88 19.8439 116.516 20.7291" stroke="#FF4A00" stroke-width="2.37001" stroke-linecap="round" stroke-linejoin="round"/>
<path d="M121.552 26.6542C122.207 26.6542 122.737 26.1236 122.737 25.4692C122.737 24.8147 122.207 24.2842 121.552 24.2842C120.898 24.2842 120.367 24.8147 120.367 25.4692C120.367 26.1236 120.898 26.6542 121.552 26.6542Z" fill="#FF4A00"/>
</svg>
