<svg width="37" height="41" viewBox="0 0 37 41" fill="none" xmlns="http://www.w3.org/2000/svg">
<path d="M34.0953 9.31387C32.5257 8.37482 30.7548 7.05738 29.1173 8.74114C27.0826 11.6305 23.3472 15.5208 25.2533 19.3008C26.0228 20.7514 27.2945 21.8339 28.3167 23.0951C28.9164 23.7118 29.2329 24.5149 29.1173 25.386C28.9781 26.5673 28.0382 27.498 26.8894 27.6411C25.3577 27.8201 24.0349 26.5673 24.0349 25.0281C23.8957 24.2048 24.1046 22.3434 22.7121 22.1286C21.807 21.9855 20.6583 23.4531 20.0665 25.386C19.5929 26.9822 19.8576 28.3403 19.8576 29.9321C19.8576 31.6374 18.623 33.1705 16.7943 32.9747C15.5759 32.8315 14.5316 31.8292 14.3575 30.5764C14.2047 29.5814 14.6333 28.5703 15.2278 27.7843C15.8196 26.8894 16.7246 25.5292 17.1772 24.2764C17.6645 22.9519 18.3801 21.896 17.4557 21.198C16.5312 20.4999 12.6085 26.3399 10.4587 25.9588C9.48398 25.7798 8.71814 24.9565 8.54408 23.99C8.26559 22.5224 9.20549 21.2338 10.4935 20.9832C12.0053 20.7088 16.4858 19.0235 15.9936 17.1889C15.5463 15.625 11.7022 18.5222 10.4587 18.4059C9.27511 18.3701 8.33522 17.332 8.30041 16.115C8.30041 14.7536 9.38762 13.7883 10.7024 13.7883C12.2429 13.7883 13.7661 14.4383 15.3322 14.0747C19.3465 13.1834 20.8496 9.6034 22.8514 6.41443C23.7913 4.91102 23.3387 2.87068 21.807 1.9758C19.9276 0.928973 17.9842 0.307119 15.9588 1.51046L2.8699 9.31387C1.5819 10.0656 0.78125 11.4974 0.78125 13.0366V27.9991C0.78125 29.5383 1.5819 30.9701 2.8699 31.7218L15.9936 39.4894C17.5253 40.4201 19.4399 40.4201 21.0064 39.4894L34.1301 31.7218C35.4181 30.9701 36.2188 29.5383 36.2188 27.9991V13.0366C36.1839 11.4974 35.3833 10.0656 34.0953 9.31387Z" fill="white"/>
</svg>
